# File created by Blade
# Date/Time:  Tue Jan 27 18:01:49 2015
# Frame Rate: 120.000 fps
#------------------------------------------------------
:FULLY-SPECIFIED
:DEGREES
1925
root -1.535207 31.913969 -5.793748 8.278189 20.988748 4.647660
Spine -7.189341 -8.227749 -5.021543
Head 2.805789 -14.113216 4.646600
LeftShoulder -13.104454 15.489805 6.551329
LeftArm 26.257995 41.591463 -70.937471
LeftForeArm -2.125337 -0.000000 12.438873
LeftHand -11.374794 -0.000000 -6.466182
LeftHandThumb1 -26.253704 0.000000 33.147579
RightShoulder -12.836459 26.981816 -48.967544
RightArm 56.115583 69.720207 70.066270
RightForeArm 29.059054 0.000000 118.094247
RightHand -2.434395 -0.000000 10.531018
RightHandThumb1 -24.326973 -0.000000 -32.862282
LeftUpLeg -3.467339 -8.414437 -0.144858
LeftLeg 0.288795 -0.000000 -0.000000
LeftFoot -13.732263 11.438928 -24.204597
LeftToeBase 8.677730 -0.000000 -0.000000
RightUpLeg 3.089477 -11.885920 -2.865528
RightLeg -3.714218 -0.000000 0.000000
RightFoot -17.359524 -19.136285 11.372527
RightToeBase 5.206995 -0.000000 -0.000000
1926
root -1.537044 31.915832 -5.794538 8.271540 20.983869 4.640727
Spine -7.190241 -8.219818 -4.988939
Head 2.897211 -14.147061 4.466594
LeftShoulder -13.074891 15.485397 6.547164
LeftArm 26.265988 41.614653 -70.901153
LeftForeArm -2.154425 -0.000000 12.447251
LeftHand -11.371731 0.000000 -6.516186
LeftHandThumb1 -26.253704 0.000000 33.147579
RightShoulder -12.857626 27.124912 -49.013450
RightArm 57.047606 69.863631 71.216245
RightForeArm 29.388541 -0.000000 118.706257
RightHand -2.419964 -0.000000 10.553101
RightHandThumb1 -24.326973 -0.000000 -32.862282
LeftUpLeg -3.467015 -8.415806 -0.136024
LeftLeg 0.289959 -0.000000 -0.000000
LeftFoot -13.720166 11.445661 -24.247847
LeftToeBase 8.670955 -0.000000 -0.000000
RightUpLeg 3.088919 -11.886383 -2.857875
RightLeg -3.710579 -0.000000 0.000000
RightFoot -17.339073 -19.127318 11.370768
RightToeBase 5.190760 -0.000000 -0.000000
1927
root -1.539255 31.916948 -5.794512 8.262958 20.979463 4.639665
Spine -7.203757 -8.225369 -4.971202
Head 2.993158 -14.259214 4.260062
LeftShoulder -13.038696 15.497135 6.572848
LeftArm 26.267847 41.618855 -70.898677
LeftForeArm -2.126849 -0.000000 12.441892
LeftHand -11.389633 -0.000000 -6.556111
LeftHandThumb1 -26.253704 0.000000 33.147579
RightShoulder -12.811295 27.295957 -49.002172
RightArm 58.059960 70.067390 72.405983
RightForeArm 29.932720 0.000000 119.399468
RightHand -2.403773 -0.000000 10.558869
RightHandThumb1 -24.326973 -0.000000 -32.862282
LeftUpLeg -3.456634 -8.411747 -0.132414
LeftLeg 0.284280 -0.000000 -0.000000
LeftFoot -13.702999 11.442893 -24.243529
LeftToeBase 8.656373 -0.000000 -0.000000
RightUpLeg 3.094311 -11.889072 -2.853630
RightLeg -3.711756 -0.000000 0.000000
RightFoot -17.322850 -19.135533 11.349594
RightToeBase 5.240209 -0.000000 -0.000000
1928
root -1.540530 31.918303 -5.794730 8.259787 20.974651 4.633827
Spine -7.223429 -8.226993 -4.930136
Head 3.115611 -14.294713 3.999456
LeftShoulder -13.008587 15.487511 6.592165
LeftArm 26.265896 41.653325 -70.888678
LeftForeArm -2.165314 -0.000000 12.424486
LeftHand -11.403718 -0.000000 -6.621606
LeftHandThumb1 -26.253704 0.000000 33.147579
RightShoulder -12.795080 27.514887 -49.044068
RightArm 59.117057 70.244860 73.685322
RightForeArm 30.324617 -0.000000 120.300061
RightHand -2.557383 -0.000000 10.387470
RightHandThumb1 -24.326973 -0.000000 -32.862282
LeftUpLeg -3.461979 -8.400517 -0.125640
LeftLeg 0.297003 -0.000000 -0.000000
LeftFoot -13.697884 11.420473 -24.260866
LeftToeBase 8.657769 -0.000000 -0.000000
RightUpLeg 3.094349 -11.910736 -2.847608
RightLeg -3.716269 -0.000000 0.000000
RightFoot -17.297204 -19.116372 11.338446
RightToeBase 5.185233 -0.000000 -0.000000
1929
root -1.542727 31.919513 -5.795928 8.258126 20.966740 4.636616
Spine -7.242793 -8.222457 -4.908403
Head 3.247548 -14.386642 3.733250
LeftShoulder -12.976274 15.499365 6.614273
LeftArm 26.291633 41.636843 -70.882719
LeftForeArm -2.108598 -0.000000 12.384906
LeftHand -11.373702 -0.000000 -6.746698
LeftHandThumb1 -26.253704 0.000000 33.147579
RightShoulder -12.764991 27.751441 -49.063609
RightArm 60.275360 70.432745 75.049731
RightForeArm 30.866152 -0.000000 121.293015
RightHand -2.453634 -0.000000 10.065304
RightHandThumb1 -24.326973 -0.000000 -32.862282
LeftUpLeg -3.460330 -8.398110 -0.126200
LeftLeg 0.292604 -0.000000 -0.000000
LeftFoot -13.689811 11.434316 -24.271757
LeftToeBase 8.704273 -0.000000 -0.000000
RightUpLeg 3.089126 -11.913736 -2.848590
RightLeg -3.707221 -0.000000 0.000000
RightFoot -17.293701 -19.102830 11.337231
RightToeBase 5.171263 -0.000000 -0.000000
1930
root -1.544008 31.921132 -5.797016 8.254670 20.955749 4.635217
Spine -7.244892 -8.203689 -4.868424
Head 3.372613 -14.399554 3.401426
LeftShoulder -12.933498 15.458850 6.652984
LeftArm 26.283110 41.731647 -70.853893
LeftForeArm -2.177451 -0.000000 12.394524
LeftHand -11.389388 -0.000000 -6.835090
LeftHandThumb1 -26.253704 0.000000 33.147579
RightShoulder -12.780103 27.968904 -49.118240
RightArm 61.943908 70.652434 76.959151
RightForeArm 31.652010 -0.000000 122.426587
RightHand -2.358544 -0.000000 10.127158
RightHandThumb1 -24.326973 -0.000000 -32.862282
LeftUpLeg -3.457471 -8.389535 -0.131085
LeftLeg 0.295147 -0.000000 -0.000000
LeftFoot -13.688279 11.459539 -24.313592
LeftToeBase 8.685833 -0.000000 -0.000000
RightUpLeg 3.084400 -11.919945 -2.847367
RightLeg -3.704611 -0.000000 0.000000
RightFoot -17.281915 -19.082611 11.353242
RightToeBase 5.200561 -0.000000 -0.000000
1931
root -1.546172 31.922559 -5.797458 8.249863 20.947699 4.635738
Spine -7.253799 -8.185419 -4.840624
Head 3.546461 -14.502169 3.072086
LeftShoulder -12.898227 15.428895 6.683316
LeftArm 26.272320 41.770309 -70.843863
LeftForeArm -2.150343 -0.000000 12.386235
LeftHand -11.383135 -0.000000 -6.882904
LeftHandThumb1 -26.253704 0.000000 33.147579
RightShoulder -12.788610 28.201770 -49.167203
RightArm 63.604811 70.843623 78.855600
RightForeArm 32.164406 -0.000000 123.771144
RightHand -2.298033 -0.000000 9.717406
RightHandThumb1 -24.326973 -0.000000 -32.862282
LeftUpLeg -3.456823 -8.369366 -0.127016
LeftLeg 0.293786 -0.000000 -0.000000
LeftFoot -13.653227 11.450801 -24.268795
LeftToeBase 8.648624 -0.000000 -0.000000
RightUpLeg 3.084858 -11.932897 -2.845813
RightLeg -3.702633 -0.000000 0.000000
RightFoot -17.263978 -19.065098 11.333595
RightToeBase 5.209267 -0.000000 -0.000000
1932
root -1.548502 31.924718 -5.798245 8.245534 20.937966 4.633958
Spine -7.292766 -8.168427 -4.805815
Head 3.753459 -14.734012 2.700481
LeftShoulder -12.824594 15.437427 6.720769
LeftArm 26.268941 41.782336 -70.843026
LeftForeArm -2.168415 -0.000000 12.370908
LeftHand -11.375306 0.000000 -6.845424
LeftHandThumb1 -26.253704 0.000000 33.147579
RightShoulder -12.705160 28.377272 -49.168649
RightArm 65.720762 71.101197 81.176346
RightForeArm 32.812188 0.000000 125.274388
RightHand -2.122614 -0.000000 9.124256
RightHandThumb1 -24.326973 -0.000000 -32.862282
LeftUpLeg -3.458450 -8.354702 -0.123597
LeftLeg 0.297221 -0.000000 -0.000000
LeftFoot -13.627568 11.447187 -24.270326
LeftToeBase 8.607033 -0.000000 -0.000000
RightUpLeg 3.083891 -11.930734 -2.841348
RightLeg -3.703538 -0.000000 0.000000
RightFoot -17.244876 -19.066833 11.324860
RightToeBase 5.194268 -0.000000 -0.000000
1933
root -1.552860 31.924941 -5.801510 8.241299 20.963930 4.646644
Spine -7.276326 -8.183586 -4.774857
Head 3.842831 -14.736294 2.408873
LeftShoulder -12.783963 15.416102 6.735972
LeftArm 26.271040 41.788228 -70.810307
LeftForeArm -2.152398 -0.000000 12.396036
LeftHand -11.372171 -0.000000 -6.811004
LeftHandThumb1 -26.253704 0.000000 33.147579
RightShoulder -12.726226 28.583643 -49.237274
RightArm 68.276176 71.332596 83.969121
RightForeArm 33.715051 -0.000000 126.908466
RightHand -1.899672 0.000000 9.062952
RightHandThumb1 -24.326973 -0.000000 -32.862282
LeftUpLeg -3.472432 -8.376290 -0.130340
LeftLeg 0.332322 -0.000000 -0.000000
LeftFoot -13.655283 11.436694 -24.331553
LeftToeBase 8.667932 -0.000000 -0.000000
RightUpLeg 3.087218 -11.954458 -2.844609
RightLeg -3.702791 -0.000000 0.000000
RightFoot -17.247795 -19.071428 11.330530
RightToeBase 5.197796 -0.000000 -0.000000
1934
root -1.555771 31.926006 -5.802375 8.231149 20.960182 4.650774
Spine -7.272932 -8.169630 -4.733198
Head 4.019905 -14.750497 2.096971
LeftShoulder -12.740104 15.392547 6.743920
LeftArm 26.258632 41.804946 -70.777049
LeftForeArm -2.156365 -0.000000 12.419548
LeftHand -11.391505 -0.000000 -6.821552
LeftHandThumb1 -26.253704 0.000000 33.147579
RightShoulder -12.765279 28.857674 -49.291958
RightArm 71.107817 71.485995 87.013601
RightForeArm 34.531345 -0.000000 128.682351
RightHand -1.535980 -0.000000 9.009129
RightHandThumb1 -24.326973 -0.000000 -32.862282
LeftUpLeg -3.466499 -8.369380 -0.131557
LeftLeg 0.334983 -0.000000 -0.000000
LeftFoot -13.634031 11.442076 -24.338887
LeftToeBase 8.629005 -0.000000 -0.000000
RightUpLeg 3.096900 -11.952670 -2.845244
RightLeg -3.707453 -0.000000 0.000000
RightFoot -17.241664 -19.076271 11.333753
RightToeBase 5.216721 -0.000000 -0.000000
1935
root -1.559179 31.928335 -5.802651 8.217848 20.948862 4.646510
Spine -7.302305 -8.152347 -4.702950
Head 4.242107 -15.047174 1.693249
LeftShoulder -12.667188 15.431484 6.760066
LeftArm 26.268089 41.761144 -70.758931
LeftForeArm -2.171176 -0.000000 12.431893
LeftHand -11.430851 -0.000000 -6.855574
LeftHandThumb1 -26.253704 0.000000 33.147579
RightShoulder -12.710715 29.061531 -49.282454
RightArm 74.425638 71.662717 90.496809
RightForeArm 35.319560 0.000000 130.648554
RightHand -1.278563 -0.000000 8.748517
RightHandThumb1 -24.326973 -0.000000 -32.862282
LeftUpLeg -3.456208 -8.357990 -0.119587
LeftLeg 0.325041 -0.000000 -0.000000
LeftFoot -13.596709 11.434174 -24.314271
LeftToeBase 8.682735 -0.000000 -0.000000
RightUpLeg 3.107153 -11.947331 -2.838284
RightLeg -3.713073 -0.000000 0.000000
RightFoot -17.207661 -19.087164 11.300333
RightToeBase 5.179478 -0.000000 -0.000000
